<svg width="87" height="30" viewBox="0 0 87 30" fill="none" xmlns="http://www.w3.org/2000/svg">
<path d="M1.72605 29.656C1.38472 29.656 1.10976 29.5517 0.901165 29.3431C0.711536 29.1535 0.616721 28.888 0.616721 28.5467V15.1209C0.635684 13.6418 0.986499 12.3144 1.66917 11.1387C2.3708 9.944 3.30946 9.00533 4.48517 8.32266C5.67983 7.64 7.01672 7.29866 8.49583 7.29866C10.0129 7.29866 11.3687 7.64948 12.5634 8.35111C13.7581 9.03378 14.6967 9.97244 15.3794 11.1671C16.081 12.3618 16.4318 13.7176 16.4318 15.2347C16.4318 16.7327 16.0905 18.0791 15.4078 19.2738C14.7441 20.4684 13.8339 21.4166 12.6772 22.1182C11.5204 22.8009 10.212 23.1422 8.75183 23.1422C7.48131 23.1422 6.32457 22.8767 5.28161 22.3458C4.25761 21.7959 3.43272 21.0753 2.80694 20.184V28.5467C2.80694 28.888 2.70265 29.1535 2.49405 29.3431C2.30443 29.5517 2.04843 29.656 1.72605 29.656ZM8.49583 21.1511C9.59568 21.1511 10.5818 20.8951 11.4541 20.3831C12.3264 19.8711 13.009 19.1695 13.5021 18.2782C14.0141 17.368 14.2701 16.3535 14.2701 15.2347C14.2701 14.0969 14.0141 13.0824 13.5021 12.1911C13.009 11.2999 12.3264 10.5982 11.4541 10.0862C10.5818 9.55526 9.59568 9.28978 8.49583 9.28978C7.41494 9.28978 6.43835 9.55526 5.56605 10.0862C4.69376 10.5982 4.01109 11.2999 3.51805 12.1911C3.02502 13.0824 2.7785 14.0969 2.7785 15.2347C2.7785 16.3535 3.02502 17.368 3.51805 18.2782C4.01109 19.1695 4.69376 19.8711 5.56605 20.3831C6.43835 20.8951 7.41494 21.1511 8.49583 21.1511ZM27.1563 23.1422C25.6961 23.1422 24.3877 22.8009 23.2309 22.1182C22.0742 21.4166 21.1545 20.4684 20.4718 19.2738C19.8081 18.0791 19.4763 16.7327 19.4763 15.2347C19.4763 13.7176 19.8176 12.3618 20.5003 11.1671C21.2019 9.97244 22.1501 9.03378 23.3447 8.35111C24.5394 7.64948 25.8858 7.29866 27.3838 7.29866C28.8819 7.29866 30.2188 7.64948 31.3945 8.35111C32.5892 9.03378 33.5278 9.97244 34.2105 11.1671C34.9121 12.3618 35.2724 13.7176 35.2914 15.2347L34.4096 15.9173C34.4096 17.2827 34.0872 18.5153 33.4425 19.6151C32.8167 20.696 31.9539 21.5588 30.8541 22.2036C29.7732 22.8293 28.5406 23.1422 27.1563 23.1422ZM27.3838 21.1511C28.4837 21.1511 29.4603 20.8951 30.3136 20.3831C31.1859 19.8711 31.8686 19.1695 32.3616 18.2782C32.8736 17.368 33.1296 16.3535 33.1296 15.2347C33.1296 14.0969 32.8736 13.0824 32.3616 12.1911C31.8686 11.2999 31.1859 10.5982 30.3136 10.0862C29.4603 9.55526 28.4837 9.28978 27.3838 9.28978C26.3029 9.28978 25.3264 9.55526 24.4541 10.0862C23.5818 10.5982 22.8896 11.2999 22.3776 12.1911C21.8656 13.0824 21.6096 14.0969 21.6096 15.2347C21.6096 16.3535 21.8656 17.368 22.3776 18.2782C22.8896 19.1695 23.5818 19.8711 24.4541 20.3831C25.3264 20.8951 26.3029 21.1511 27.3838 21.1511ZM34.1821 23C33.8597 23 33.5942 22.9052 33.3856 22.7156C33.177 22.507 33.0727 22.2415 33.0727 21.9191V17.0551L33.6132 14.808L35.2914 15.2347V21.9191C35.2914 22.2415 35.1871 22.507 34.9785 22.7156C34.7699 22.9052 34.5044 23 34.1821 23ZM46.2072 23.1422C44.7091 23.1422 43.3627 22.8009 42.1681 22.1182C40.9734 21.4166 40.0252 20.4684 39.3236 19.2738C38.6409 18.0791 38.2996 16.7233 38.2996 15.2062C38.2996 13.7081 38.6315 12.3618 39.2952 11.1671C39.9778 9.97244 40.8975 9.03378 42.0543 8.35111C43.211 7.64948 44.5195 7.29866 45.9796 7.29866C47.2501 7.29866 48.3974 7.57363 49.4214 8.12355C50.4454 8.65452 51.2703 9.36563 51.8961 10.2569V1.89422C51.8961 1.55289 52.0004 1.2874 52.2089 1.09777C52.4175 0.889183 52.683 0.784887 53.0054 0.784887C53.3278 0.784887 53.5932 0.889183 53.8018 1.09777C54.0104 1.2874 54.1147 1.55289 54.1147 1.89422V15.32C54.0768 16.7991 53.707 18.136 53.0054 19.3307C52.3227 20.5064 51.3841 21.4356 50.1894 22.1182C49.0137 22.8009 47.6863 23.1422 46.2072 23.1422ZM46.2072 21.1511C47.307 21.1511 48.2836 20.8951 49.1369 20.3831C50.0092 19.8521 50.6919 19.141 51.1849 18.2498C51.6969 17.3585 51.9529 16.344 51.9529 15.2062C51.9529 14.0874 51.6969 13.0824 51.1849 12.1911C50.6919 11.2809 50.0092 10.5698 49.1369 10.0578C48.2836 9.54578 47.307 9.28978 46.2072 9.28978C45.1263 9.28978 44.1497 9.54578 43.2774 10.0578C42.4051 10.5698 41.7129 11.2809 41.2009 12.1911C40.6889 13.0824 40.4329 14.0874 40.4329 15.2062C40.4329 16.344 40.6889 17.3585 41.2009 18.2498C41.7129 19.141 42.4051 19.8521 43.2774 20.3831C44.1497 20.8951 45.1263 21.1511 46.2072 21.1511ZM64.2418 23.1422C63.123 23.1422 62.0137 22.9526 60.9138 22.5733C59.814 22.1941 58.9227 21.6252 58.2401 20.8667C58.0315 20.6391 57.9461 20.3831 57.9841 20.0987C58.022 19.8142 58.1642 19.5677 58.4107 19.3591C58.6762 19.1695 58.9512 19.0936 59.2356 19.1316C59.5201 19.1695 59.7571 19.2927 59.9467 19.5013C60.4018 20.0323 60.9992 20.44 61.7387 20.7244C62.4972 21.0089 63.3316 21.1511 64.2418 21.1511C65.6451 21.1511 66.6596 20.9141 67.2854 20.44C67.9112 19.947 68.2335 19.3591 68.2525 18.6764C68.2525 17.9938 67.9301 17.4344 67.2854 16.9982C66.6407 16.5431 65.5787 16.1923 64.0996 15.9458C62.1844 15.6424 60.7811 15.1114 59.8898 14.3529C58.9986 13.5944 58.5529 12.6936 58.5529 11.6507C58.5529 10.6836 58.8089 9.87763 59.3209 9.23289C59.8329 8.58815 60.5156 8.10459 61.3689 7.78222C62.2223 7.45985 63.1609 7.29866 64.1849 7.29866C65.4555 7.29866 66.5458 7.51674 67.4561 7.95289C68.3852 8.38903 69.1343 8.97689 69.7032 9.71644C69.8928 9.96296 69.9687 10.219 69.9307 10.4844C69.8928 10.7499 69.7411 10.968 69.4756 11.1387C69.2481 11.2714 68.9826 11.3188 68.6792 11.2809C68.3947 11.224 68.1482 11.0818 67.9396 10.8542C67.4655 10.3043 66.9156 9.90607 66.2898 9.65955C65.6641 9.39407 64.9435 9.26133 64.1281 9.26133C63.0851 9.26133 62.2507 9.47941 61.6249 9.91555C60.9992 10.3327 60.6863 10.8637 60.6863 11.5084C60.6863 11.9446 60.8001 12.3239 61.0276 12.6462C61.2741 12.9686 61.6818 13.253 62.2507 13.4996C62.8386 13.7461 63.654 13.9547 64.6969 14.1253C66.1192 14.3529 67.238 14.6942 68.0534 15.1493C68.8878 15.5855 69.4756 16.107 69.8169 16.7138C70.1772 17.3016 70.3574 17.9464 70.3574 18.648C70.3574 19.5393 70.0919 20.3262 69.5609 21.0089C69.0489 21.6726 68.3284 22.1941 67.3992 22.5733C66.4889 22.9526 65.4365 23.1422 64.2418 23.1422ZM76.3894 29.7698C76.2377 29.7698 76.067 29.7319 75.8774 29.656C75.2326 29.3716 75.0525 28.9164 75.3369 28.2907L84.5245 8.03822C84.8089 7.43141 85.2641 7.26074 85.8898 7.52622C86.5346 7.7917 86.7147 8.23733 86.4303 8.86311L77.2143 29.1156C77.0246 29.5517 76.7497 29.7698 76.3894 29.7698ZM79.5467 22.5164C79.2623 22.6492 78.9968 22.6776 78.7503 22.6018C78.5038 22.507 78.3046 22.3173 78.1529 22.0329L71.8098 8.89155C71.6771 8.60711 71.6581 8.34163 71.7529 8.09511C71.8478 7.84859 72.0374 7.65896 72.3218 7.52622C72.6063 7.39348 72.8718 7.37452 73.1183 7.46933C73.3648 7.54518 73.5544 7.72533 73.6872 8.00978L79.9165 21.1511C80.0682 21.4356 80.1156 21.701 80.0587 21.9476C80.0018 22.1941 79.8312 22.3837 79.5467 22.5164Z" fill="black"/>
</svg>
